<svg width="115" height="19" viewBox="0 0 115 19" fill="none" xmlns="http://www.w3.org/2000/svg">
<path d="M16.1691 1.00016V18.0002H11.6091V4.81302H5.42052V18.0002H0.883789V1.00016H16.1691Z" fill="white"/>
<path d="M27.0954 1.00016C28.5689 1.00016 29.8485 1.25921 30.9342 1.7773C32.0199 2.27921 32.8575 3.00778 33.4469 3.96302C34.0362 4.90206 34.3309 6.01111 34.3309 7.29016C34.3309 8.56921 34.0362 9.67826 33.4469 10.6173C32.8575 11.5564 32.0199 12.2849 30.9342 12.803C29.8485 13.3049 28.5689 13.5559 27.0954 13.5559H24.2571V18.0002H19.6505V1.00016H27.0954ZM26.8162 9.7673C27.7624 9.7673 28.4758 9.55683 28.9567 9.13587C29.4375 8.69873 29.6779 8.08349 29.6779 7.29016C29.6779 6.49683 29.4375 5.88159 28.9567 5.44445C28.4758 5.0073 27.7624 4.78873 26.8162 4.78873H24.2571V9.7673H26.8162Z" fill="white"/>
<path d="M44.6484 18.3402C42.9267 18.3402 41.3757 17.9597 39.9953 17.1987C38.6304 16.4378 37.5525 15.3854 36.7614 14.0416C35.9859 12.6978 35.5982 11.184 35.5982 9.50016C35.5982 7.81635 35.9859 6.30254 36.7614 4.95873C37.5525 3.61492 38.6304 2.56254 39.9953 1.80159C41.3757 1.04064 42.9267 0.660159 44.6484 0.660159C46.37 0.660159 47.9133 1.04064 49.2782 1.80159C50.6586 2.56254 51.7365 3.61492 52.512 4.95873C53.3031 6.30254 53.6986 7.81635 53.6986 9.50016C53.6986 11.184 53.3031 12.6978 52.512 14.0416C51.7365 15.3854 50.6586 16.4378 49.2782 17.1987C47.9133 17.9597 46.37 18.3402 44.6484 18.3402ZM44.6484 14.3573C45.4704 14.3573 46.2149 14.1549 46.8818 13.7502C47.5488 13.3454 48.0761 12.7787 48.4639 12.0502C48.8516 11.3054 49.0455 10.4554 49.0455 9.50016C49.0455 8.54492 48.8516 7.70302 48.4639 6.97445C48.0761 6.22968 47.5488 5.65492 46.8818 5.25016C46.2149 4.8454 45.4704 4.64302 44.6484 4.64302C43.8263 4.64302 43.0818 4.8454 42.4149 5.25016C41.748 5.65492 41.2206 6.22968 40.8329 6.97445C40.4451 7.70302 40.2512 8.54492 40.2512 9.50016C40.2512 10.4554 40.4451 11.3054 40.8329 12.0502C41.2206 12.7787 41.748 13.3454 42.4149 13.7502C43.0818 14.1549 43.8263 14.3573 44.6484 14.3573Z" fill="white"/>
<path d="M76.2163 9.45159C76.2163 11.6697 75.4873 13.4344 74.0294 14.7459C72.5869 16.0411 70.493 16.7697 67.7477 16.9316V18.8016H63.5367V16.9316C60.7914 16.7211 58.6898 15.9764 57.2318 14.6973C55.7894 13.4183 55.0681 11.6697 55.0681 9.45159C55.0681 7.23349 55.7894 5.48492 57.2318 4.20587C58.6743 2.91064 60.7759 2.15778 63.5367 1.9473V0.19873H67.7477V1.9473C70.493 2.14159 72.5869 2.88635 74.0294 4.18159C75.4873 5.46064 76.2163 7.2173 76.2163 9.45159ZM67.7477 13.1916C69.1281 13.0297 70.1363 12.6411 70.7722 12.0259C71.4237 11.4106 71.7494 10.5444 71.7494 9.4273C71.7494 8.31016 71.4159 7.45206 70.749 6.85302C70.0975 6.25397 69.0971 5.87349 67.7477 5.71159V13.1916ZM59.5351 9.45159C59.5351 10.5525 59.8685 11.4025 60.5355 12.0016C61.2024 12.6006 62.2028 12.9892 63.5367 13.1673V5.71159C62.1408 5.87349 61.1249 6.25397 60.489 6.85302C59.853 7.45206 59.5351 8.31826 59.5351 9.45159Z" fill="white"/>
<path d="M78.609 1.00016H83.1457V10.9816L89.8694 1.00016H94.1968V18.0002H89.66V8.04302L82.9596 18.0002H78.609V1.00016Z" fill="white"/>
<path fill-rule="evenodd" clip-rule="evenodd" d="M109.572 1H104.143V6.66661H98.7144V12.3333H104.143V18H109.572V12.3333H115V6.66661H109.572V1Z" fill="#FC5603"/>
</svg>
