<svg width="15" height="15" viewBox="0 0 15 15" fill="none" xmlns="http://www.w3.org/2000/svg">
<path d="M6.23507 8.21203C7.15452 9.10496 8.26704 9.79437 9.49447 10.2318L11.155 8.96681C11.2042 8.93435 11.2626 8.91698 11.3224 8.91698C11.3822 8.91698 11.4405 8.93435 11.4898 8.96681L14.573 10.8685C14.69 10.9359 14.7891 11.0284 14.8624 11.1387C14.9357 11.2491 14.9812 11.3742 14.9953 11.5042C15.0094 11.6343 14.9917 11.7657 14.9436 11.8881C14.8956 12.0105 14.8184 12.1205 14.7183 12.2094L13.2736 13.5756C13.0667 13.7713 12.8124 13.915 12.5335 13.9937C12.2545 14.0724 11.9595 14.0838 11.6748 14.0268C8.83476 13.4653 6.21707 12.1502 4.12085 10.2318C2.07116 8.29436 0.652789 5.82913 0.0377852 3.13517C-0.0229692 2.86684 -0.0102889 2.58803 0.0745972 2.32577C0.159483 2.06351 0.313696 1.82668 0.522292 1.63825L2.01986 0.255187C2.11253 0.164018 2.22555 0.0941004 2.35044 0.05067C2.47534 0.00723965 2.60888 -0.00857814 2.74107 0.0044011C2.87326 0.0173804 3.00067 0.0588203 3.11376 0.125618C3.22685 0.192416 3.32268 0.28284 3.3941 0.390121L5.44664 3.30383C5.48204 3.34959 5.50115 3.40502 5.50115 3.46196C5.50115 3.5189 5.48204 3.57433 5.44664 3.62008L4.09443 5.17603C4.56377 6.32758 5.295 7.36466 6.23507 8.21203V8.21203Z" fill="white"/>
</svg>
