<svg width="22" height="22" viewBox="0 0 22 22" fill="none" xmlns="http://www.w3.org/2000/svg">
<circle cx="7" cy="19" r="2" stroke="#FC5603" stroke-width="2"/>
<circle cx="16" cy="19" r="2" stroke="#FC5603" stroke-width="2"/>
<path d="M5.66296 4.46856C5.39717 4.46856 5.2053 4.723 5.27838 4.97855L7.37334 12.3041C7.4304 12.5036 7.63058 12.6263 7.83429 12.5867L16.4429 10.9123C17.1596 10.7729 17.8062 10.3818 18.2714 9.80651C18.7365 9.23121 18.9909 8.50776 18.9906 7.76098V4.86856C18.9906 4.64765 18.8116 4.46856 18.5906 4.46856H5.66296ZM4.48295 2.20054C4.53198 2.3723 4.68896 2.49074 4.86759 2.49074H20.524C20.7449 2.49074 20.924 2.66983 20.924 2.89074V7.76098C20.924 8.9683 20.5124 10.1378 19.7601 11.0676C19.0079 11.9975 17.9623 12.6295 16.8035 12.8545L6.47289 14.8664C6.26915 14.9061 6.06892 14.7833 6.01184 14.5838L2.10858 0.936085C2.04839 0.72562 2.16855 0.505863 2.37823 0.442962L3.46649 0.116487C3.6801 0.0524068 3.90485 0.175378 3.96607 0.38982L4.48295 2.20054Z" fill="#FC5603"/>
</svg>
