<svg width="58" height="80" viewBox="0 0 58 80" fill="none" xmlns="http://www.w3.org/2000/svg">
<path d="M56.7182 2.3427L53.1394 0.276608C52.5402 -0.115736 51.7394 -0.104955 50.8593 0.40317L3.58488 27.6969C1.72848 28.7688 0.223633 31.6441 0.223633 34.1193V75.005C0.223633 76.4674 0.749101 77.4622 1.5616 77.8111L4.79848 79.6799L56.7182 2.3427Z" fill="#0621BC"/>
<path d="M54.4154 52.3032L7.14104 79.5969C5.28463 80.6687 3.77979 79.531 3.77979 77.0559V36.1701C3.77979 33.6949 5.28463 30.8195 7.14104 29.7477L54.4154 2.45399C56.2718 1.38227 57.7767 2.51993 57.7767 4.99508V45.8809C57.7767 48.356 56.2718 51.2315 54.4154 52.3032Z" fill="url(#paint0_linear)"/>
<path d="M52.6646 17.9414L8.89258 43.2133V36.6171L52.6646 11.3453V17.9414Z" fill="white"/>
<path d="M27.2223 48.0537L8.89258 58.6364V53.6614L27.2223 43.0787V48.0537Z" fill="white"/>
<path d="M27.2223 57.0241L8.89258 67.6068V62.6318L27.2223 52.0491V57.0241Z" fill="white"/>
<path d="M40.1323 37.0015C40.1323 40.3212 38.6879 43.2329 36.4073 44.5497C34.1267 45.8664 32.6821 44.6225 32.6821 41.3028C32.6821 38.0086 34.1265 35.0967 36.4073 33.78C38.6879 32.4634 40.1323 33.7073 40.1323 37.0015ZM34.8298 40.0629C34.8298 41.8875 35.4188 42.6623 36.4073 42.0917C37.3956 41.5211 37.9846 40.0661 37.9846 38.2415C37.9846 36.4172 37.3956 35.6676 36.4073 36.2381C35.419 36.8089 34.8298 38.2386 34.8298 40.0629ZM48.1526 27.0751L38.669 50.314L35.4951 52.1465L44.9787 28.9076L48.1526 27.0751ZM51.0413 37.8747C51.0413 41.1944 49.597 44.1061 47.3163 45.4228C45.0357 46.7395 43.5912 45.4956 43.5912 42.1759C43.5912 38.8817 45.0356 35.9698 47.3163 34.6531C49.597 33.3364 51.0413 34.5803 51.0413 37.8747ZM45.7388 40.9359C45.7388 42.7604 46.3279 43.5355 47.3163 42.9647C48.3046 42.394 48.8937 40.9389 48.8937 39.1144C48.8937 37.29 48.3046 36.5404 47.3163 37.1109C46.3281 37.6819 45.7388 39.1115 45.7388 40.9359Z" fill="#FC7924"/>
<defs>
<linearGradient id="paint0_linear" x1="30.7782" y1="68.0224" x2="30.7782" y2="-18.4816" gradientUnits="userSpaceOnUse">
<stop stop-color="#2434DA"/>
<stop offset="1" stop-color="#2C3FFF"/>
</linearGradient>
</defs>
</svg>
