<svg width="22" height="20" viewBox="0 0 22 20" fill="none" xmlns="http://www.w3.org/2000/svg">
<path d="M10.8747 4.32873L10.0644 3.20826C9.70812 2.7156 9.31071 2.30281 8.88124 1.9707L8.88119 1.97066C8.04069 1.32061 7.10519 1 6.07571 1C4.6719 1 3.39465 1.55829 2.46051 2.57141L10.8747 4.32873ZM10.8747 4.32873L11.685 3.2083M10.8747 4.32873L11.685 3.2083M11.685 3.2083C12.0414 2.71547 12.4387 2.30283 12.868 1.9707C13.7087 1.3206 14.6442 1 15.6737 1C17.0775 1 18.3546 1.55829 19.2888 2.57146C20.2154 3.57658 20.7494 4.97619 20.7494 6.53618C20.7494 8.0885 20.1842 9.55404 18.8225 11.197L18.8225 11.1971C17.5734 12.7044 15.7578 14.2558 13.5443 16.142L13.5442 16.1421L13.5242 16.1591C12.7811 16.7925 11.9351 17.5136 11.0569 18.2816L11.0564 18.2821C11.0068 18.3255 10.9424 18.35 10.8747 18.35C10.8071 18.35 10.7429 18.3257 10.6928 18.2818L10.6921 18.2812C9.80735 17.5076 8.95582 16.7819 8.20888 16.1453L8.20567 16.1425L8.20562 16.1425M11.685 3.2083L8.20562 16.1425M8.20562 16.1425C5.99187 14.256 4.17623 12.7044 2.92712 11.1972M8.20562 16.1425L2.46042 2.5715C1.53398 3.57663 1 4.97622 1 6.53634C1 8.08844 1.56534 9.55399 2.92712 11.1972M2.92712 11.1972L2.15715 11.8353L2.92712 11.1972Z" stroke="#FC5603" stroke-width="2"/>
</svg>
