<svg width="159" height="25" viewBox="0 0 159 25" fill="none" xmlns="http://www.w3.org/2000/svg">
<path d="M21.2169 1.06569V23.6713H14.8874V6.1358H6.29727V23.6713H0V1.06569H21.2169Z" fill="#0D0D0D"/>
<path d="M36.3834 1.06569C38.4286 1.06569 40.2048 1.41016 41.7118 2.09909C43.2189 2.76649 44.3814 3.7353 45.1995 5.00552C46.0176 6.25421 46.4267 7.72895 46.4267 9.42975C46.4267 11.1306 46.0176 12.6053 45.1995 13.854C44.3814 15.1027 43.2189 16.0715 41.7118 16.7604C40.2048 17.4278 38.4286 17.7615 36.3834 17.7615H32.4435V23.6713H26.0494V1.06569H36.3834ZM35.9958 12.7237C37.3091 12.7237 38.2995 12.4438 38.9669 11.8841C39.6343 11.3028 39.968 10.4847 39.968 9.42975C39.968 8.37483 39.6343 7.55672 38.9669 6.97543C38.2995 6.39415 37.3091 6.1035 35.9958 6.1035H32.4435V12.7237H35.9958Z" fill="#0D0D0D"/>
<path d="M60.7479 24.1234C58.3582 24.1234 56.2053 23.6174 54.2892 22.6056C52.3946 21.5937 50.8984 20.1943 49.8004 18.4074C48.7239 16.6205 48.1857 14.6075 48.1857 12.3685C48.1857 10.1294 48.7239 8.11648 49.8004 6.32956C50.8984 4.54264 52.3946 3.14325 54.2892 2.13138C56.2053 1.11951 58.3582 0.61358 60.7479 0.61358C63.1377 0.61358 65.2798 1.11951 67.1744 2.13138C69.0905 3.14325 70.5867 4.54264 71.6632 6.32956C72.7612 8.11648 73.3102 10.1294 73.3102 12.3685C73.3102 14.6075 72.7612 16.6205 71.6632 18.4074C70.5867 20.1943 69.0905 21.5937 67.1744 22.6056C65.2798 23.6174 63.1377 24.1234 60.7479 24.1234ZM60.7479 18.8272C61.889 18.8272 62.9224 18.5581 63.8481 18.0199C64.7739 17.4816 65.5059 16.7281 66.0441 15.7593C66.5823 14.769 66.8514 13.6387 66.8514 12.3685C66.8514 11.0983 66.5823 9.97874 66.0441 9.00993C65.5059 8.0196 64.7739 7.25531 63.8481 6.71708C62.9224 6.17886 61.889 5.90974 60.7479 5.90974C59.6069 5.90974 58.5735 6.17886 57.6477 6.71708C56.722 7.25531 55.99 8.0196 55.4518 9.00993C54.9135 9.97874 54.6444 11.0983 54.6444 12.3685C54.6444 13.6387 54.9135 14.769 55.4518 15.7593C55.99 16.7281 56.722 17.4816 57.6477 18.0199C58.5735 18.5581 59.6069 18.8272 60.7479 18.8272Z" fill="#0D0D0D"/>
<path d="M104.566 12.3039C104.566 15.2534 103.554 17.6001 101.531 19.3439C99.5284 21.0662 96.6219 22.035 92.8113 22.2503V24.737H86.9661V22.2503C83.1555 21.9705 80.2383 20.9801 78.2145 19.2793C76.2123 17.5785 75.2112 15.2534 75.2112 12.3039C75.2112 9.3544 76.2123 7.02926 78.2145 5.32846C80.2167 3.60613 83.1339 2.60502 86.9661 2.32515V0H92.8113V2.32515C96.6219 2.58349 99.5284 3.57383 101.531 5.29616C103.554 6.99696 104.566 9.33287 104.566 12.3039ZM92.8113 17.2771C94.7273 17.0618 96.1267 16.5451 97.0094 15.727C97.9137 14.9089 98.3658 13.7571 98.3658 12.2716C98.3658 10.7861 97.9029 9.64504 96.9771 8.84847C96.0729 8.05189 94.6843 7.54596 92.8113 7.33066V17.2771ZM81.4116 12.3039C81.4116 13.7679 81.8745 14.8981 82.8002 15.6947C83.726 16.4913 85.1146 17.008 86.9661 17.2448V7.33066C85.0285 7.54596 83.6183 8.05189 82.7356 8.84847C81.853 9.64504 81.4116 10.7969 81.4116 12.3039Z" fill="#0D0D0D"/>
<path d="M107.887 1.06569H114.185V14.3384L123.518 1.06569H129.524V23.6713H123.227V10.4309L113.926 23.6713H107.887V1.06569Z" fill="#0D0D0D"/>
<path fill-rule="evenodd" clip-rule="evenodd" d="M151.409 1H143.012V8.10474H135.908V16.5011H143.012V23.6056H151.409V16.5011H158.513V8.10474H151.409V1Z" fill="#FF6400"/>
</svg>
