<svg width="22" height="22" viewBox="0 0 22 22" fill="none" xmlns="http://www.w3.org/2000/svg">
<g clip-path="url(#clip0)">
<circle cx="10.7141" cy="5.14286" r="4.14286" stroke="#FC5603" stroke-width="2"/>
<mask id="path-2-inside-1" fill="white">
<path d="M19.4286 21.7143C19.9809 21.7143 20.4334 21.2656 20.3827 20.7157C20.1652 18.3543 19.1814 16.1333 17.5833 14.4412C15.7615 12.5123 13.2907 11.4286 10.7143 11.4286C8.1379 11.4286 5.66703 12.5123 3.84525 14.4412C2.24713 16.1333 1.26334 18.3543 1.04586 20.7157C0.995214 21.2656 1.44772 21.7143 2 21.7143L10.7143 21.7143H19.4286Z"/>
</mask>
<path d="M19.4286 21.7143C19.9809 21.7143 20.4334 21.2656 20.3827 20.7157C20.1652 18.3543 19.1814 16.1333 17.5833 14.4412C15.7615 12.5123 13.2907 11.4286 10.7143 11.4286C8.1379 11.4286 5.66703 12.5123 3.84525 14.4412C2.24713 16.1333 1.26334 18.3543 1.04586 20.7157C0.995214 21.2656 1.44772 21.7143 2 21.7143L10.7143 21.7143H19.4286Z" stroke="#FC5603" stroke-width="4" mask="url(#path-2-inside-1)"/>
</g>
<defs>
<clipPath id="clip0">
<rect width="22" height="22" fill="white"/>
</clipPath>
</defs>
</svg>
