<svg width="19" height="19" viewBox="0 0 19 19" fill="none" xmlns="http://www.w3.org/2000/svg">
<path fill-rule="evenodd" clip-rule="evenodd" d="M17.2608 15.6648L14.2401 12.71H14.2304C15.1193 11.5538 15.6003 10.1436 15.6003 8.69375C15.6003 5.00262 12.5495 2 8.79919 2C5.0508 2 2 5.00262 2 8.69375C2 12.3849 5.0508 15.3875 8.80017 15.3875C10.3353 15.3875 11.7441 14.8807 12.8808 14.0392V14.0487L15.8821 17.0227C16.0764 17.2139 16.3193 17.3 16.5719 17.3C16.8245 17.3 17.0674 17.2044 17.2618 17.0227C17.6407 16.6497 17.6407 16.0377 17.2618 15.6648H17.2608ZM8.80114 13.475C6.11955 13.475 3.94318 11.333 3.94318 8.69375C3.94318 6.0545 6.11955 3.9125 8.80114 3.9125C11.4827 3.9125 13.6591 6.0545 13.6591 8.69375C13.6591 11.333 11.4827 13.475 8.80114 13.475Z" fill="#C5C5C5"/>
</svg>
