<svg width="18" height="10" viewBox="0 0 18 10" fill="none" xmlns="http://www.w3.org/2000/svg">
<path d="M17.1248 0.707543C17.1248 0.707543 16.9998 0.350401 16.223 0.448615L13.6515 0.466473C13.4551 0.439687 13.3123 0.520043 13.3123 0.520043C13.3123 0.520043 13.1605 0.600401 13.089 0.796829C12.6694 1.87719 12.1337 2.80576 12.1337 2.80576C10.9908 4.75219 10.5265 4.85933 10.339 4.73433C9.90155 4.45754 10.0176 3.60933 10.0176 3.00219C10.0176 1.10933 10.3033 0.323615 9.45512 0.118258C9.17833 0.0557576 8.97297 0.0111151 8.24976 0.0021868C7.33012 -0.00674245 6.55333 0.00218681 6.11583 0.216473C5.82119 0.359329 5.59797 0.680758 5.7319 0.698615C5.90155 0.725401 6.28547 0.805758 6.49083 1.08254C6.49083 1.08254 6.71405 1.44862 6.74976 2.25219C6.84797 4.4754 6.39262 4.75219 6.39262 4.75219C6.0444 4.93969 5.43726 4.62719 4.5444 2.7879C4.5444 2.7879 4.02655 1.87719 3.62476 0.877187C3.55333 0.689687 3.41047 0.591473 3.41047 0.591473C3.41047 0.591473 3.24976 0.466473 3.01762 0.430758L0.571189 0.448615C0.196189 0.448615 0.0622602 0.618258 0.0622602 0.618258C0.0622602 0.618258 -0.0716684 0.761115 0.0533316 1.05576C1.96405 5.54683 4.14262 7.79683 4.14262 7.79683C4.14262 7.79683 6.13369 9.87719 8.39262 9.73433H9.4194C9.7319 9.70754 9.89262 9.5379 9.89262 9.5379C9.89262 9.5379 10.0355 9.37719 10.0265 9.08254C10.0087 7.70754 10.6515 7.50219 10.6515 7.50219C11.2765 7.30576 12.0801 8.83254 12.9373 9.42183C12.9373 9.42183 13.589 9.86826 14.0801 9.77004L16.3658 9.73433C17.5712 9.7254 16.9998 8.7254 16.9998 8.7254C16.9551 8.64504 16.6694 8.02897 15.2944 6.75219C13.8658 5.42183 14.0533 5.63612 15.7855 3.33254C16.839 1.93076 17.2587 1.07362 17.1248 0.707543Z" fill="white"/>
</svg>
